<svg width="158" height="47" viewBox="0 0 158 47" fill="none" xmlns="http://www.w3.org/2000/svg">
<path opacity="0.4" d="M30.9988 0H11.3035C4.1595 0 0 4.183 0 11.3505V35.626C0 42.911 4.1595 47 11.3035 47H30.9988C38.258 47 42.3 42.911 42.3 35.626V11.3505C42.3 4.183 38.258 0 30.9988 0Z" fill="#15122D"/>
<path fill-rule="evenodd" clip-rule="evenodd" d="M11.9386 10.9275V10.951C10.9258 10.951 10.1056 11.7735 10.1056 12.784C10.1056 13.7945 10.9258 14.617 11.9386 14.617H18.9628C19.9756 14.617 20.7981 13.7945 20.7981 12.7581C20.7981 11.75 19.9756 10.9275 18.9628 10.9275H11.9386ZM30.3626 25.239H11.9386C10.9258 25.239 10.1056 24.4165 10.1056 23.406C10.1056 22.3955 10.9258 21.5706 11.9386 21.5706H30.3626C31.3731 21.5706 32.1956 22.3955 32.1956 23.406C32.1956 24.4165 31.3731 25.239 30.3626 25.239ZM30.3625 35.9785H11.9385C11.2335 36.0725 10.552 35.72 10.176 35.1325C9.80004 34.5215 9.80004 33.746 10.176 33.1585C10.552 32.5475 11.2335 32.2185 11.9385 32.289H30.3625C31.3002 32.383 32.0075 33.182 32.0075 34.1455C32.0075 35.0832 31.3002 35.8845 30.3625 35.9785Z" fill="#15122D"/>
<path d="M56.66 36V11.5H59.46L60.685 16.12V36H56.66ZM73.635 36L58.97 16.855L59.46 11.5L74.125 30.645L73.635 36ZM73.635 36L72.41 31.695V11.5H76.435V36H73.635ZM89.0279 36.35C87.3479 36.35 85.8312 35.9767 84.4779 35.23C83.1479 34.46 82.0862 33.41 81.2929 32.08C80.5229 30.75 80.1379 29.2567 80.1379 27.6C80.1379 25.9433 80.5229 24.4617 81.2929 23.155C82.0629 21.825 83.1012 20.775 84.4079 20.005C85.7379 19.235 87.2079 18.85 88.8179 18.85C90.3812 18.85 91.7579 19.2117 92.9479 19.935C94.1612 20.6583 95.1062 21.65 95.7829 22.91C96.4829 24.17 96.8329 25.605 96.8329 27.215C96.8329 27.495 96.8096 27.7867 96.7629 28.09C96.7396 28.37 96.6929 28.685 96.6229 29.035H82.8329V25.885H94.6279L93.1929 27.145C93.1462 26.1183 92.9479 25.255 92.5979 24.555C92.2479 23.855 91.7462 23.3183 91.0929 22.945C90.4629 22.5717 89.6812 22.385 88.7479 22.385C87.7679 22.385 86.9162 22.595 86.1929 23.015C85.4696 23.435 84.9096 24.03 84.5129 24.8C84.1162 25.5467 83.9179 26.445 83.9179 27.495C83.9179 28.545 84.1279 29.4667 84.5479 30.26C84.9679 31.0533 85.5629 31.6717 86.3329 32.115C87.1029 32.535 87.9896 32.745 88.9929 32.745C89.8562 32.745 90.6496 32.5933 91.3729 32.29C92.1196 31.9867 92.7496 31.5433 93.2629 30.96L95.7129 33.445C94.8962 34.4017 93.9046 35.125 92.7379 35.615C91.5712 36.105 90.3346 36.35 89.0279 36.35ZM107.724 36.35C106.044 36.35 104.528 35.9767 103.174 35.23C101.844 34.46 100.783 33.41 99.9892 32.08C99.2192 30.75 98.8342 29.2567 98.8342 27.6C98.8342 25.9433 99.2192 24.4617 99.9892 23.155C100.759 21.825 101.798 20.775 103.104 20.005C104.434 19.235 105.904 18.85 107.514 18.85C109.078 18.85 110.454 19.2117 111.644 19.935C112.858 20.6583 113.803 21.65 114.479 22.91C115.179 24.17 115.529 25.605 115.529 27.215C115.529 27.495 115.506 27.7867 115.459 28.09C115.436 28.37 115.389 28.685 115.319 29.035H101.529V25.885H113.324L111.889 27.145C111.843 26.1183 111.644 25.255 111.294 24.555C110.944 23.855 110.443 23.3183 109.789 22.945C109.159 22.5717 108.378 22.385 107.444 22.385C106.464 22.385 105.613 22.595 104.889 23.015C104.166 23.435 103.606 24.03 103.209 24.8C102.813 25.5467 102.614 26.445 102.614 27.495C102.614 28.545 102.824 29.4667 103.244 30.26C103.664 31.0533 104.259 31.6717 105.029 32.115C105.799 32.535 106.686 32.745 107.689 32.745C108.553 32.745 109.346 32.5933 110.069 32.29C110.816 31.9867 111.446 31.5433 111.959 30.96L114.409 33.445C113.593 34.4017 112.601 35.125 111.434 35.615C110.268 36.105 109.031 36.35 107.724 36.35ZM123.31 36L116.555 19.2H120.545L125.095 31.415L123.905 31.45L128.35 19.2H130.59L135.035 31.45L133.845 31.415L138.395 19.2H142.385L135.63 36H133.39L128.84 24.38H130.1L125.55 36H123.31ZM149.882 36.35C148.949 36.35 148.05 36.2333 147.187 36C146.324 35.7433 145.53 35.3933 144.807 34.95C144.084 34.4833 143.454 33.9233 142.917 33.27L145.367 30.82C145.95 31.4967 146.615 32.01 147.362 32.36C148.132 32.6867 148.995 32.85 149.952 32.85C150.815 32.85 151.469 32.7217 151.912 32.465C152.355 32.2083 152.577 31.835 152.577 31.345C152.577 30.8317 152.367 30.435 151.947 30.155C151.527 29.875 150.979 29.6417 150.302 29.455C149.649 29.245 148.949 29.035 148.202 28.825C147.479 28.615 146.779 28.335 146.102 27.985C145.449 27.6117 144.912 27.11 144.492 26.48C144.072 25.85 143.862 25.0333 143.862 24.03C143.862 22.9567 144.107 22.035 144.597 21.265C145.11 20.495 145.822 19.9 146.732 19.48C147.665 19.06 148.774 18.85 150.057 18.85C151.41 18.85 152.6 19.095 153.627 19.585C154.677 20.0517 155.552 20.7633 156.252 21.72L153.802 24.17C153.312 23.5633 152.752 23.1083 152.122 22.805C151.492 22.5017 150.769 22.35 149.952 22.35C149.182 22.35 148.587 22.4667 148.167 22.7C147.747 22.9333 147.537 23.2717 147.537 23.715C147.537 24.1817 147.747 24.5433 148.167 24.8C148.587 25.0567 149.124 25.2783 149.777 25.465C150.454 25.6517 151.154 25.8617 151.877 26.095C152.624 26.305 153.324 26.6083 153.977 27.005C154.654 27.3783 155.202 27.8917 155.622 28.545C156.042 29.175 156.252 30.0033 156.252 31.03C156.252 32.6633 155.68 33.9583 154.537 34.915C153.394 35.8717 151.842 36.35 149.882 36.35Z" fill="#15122D"/>
</svg>
