<svg width="158" height="47" viewBox="0 0 158 47" fill="none" xmlns="http://www.w3.org/2000/svg">
<path opacity="0.4" d="M30.9989 0H11.3035C4.1595 0 0 4.183 0 11.3505V35.626C0 42.911 4.1595 47 11.3035 47H30.9989C38.258 47 42.3 42.911 42.3 35.626V11.3505C42.3 4.183 38.258 0 30.9989 0Z" fill="white"/>
<path fill-rule="evenodd" clip-rule="evenodd" d="M11.9383 10.9275V10.951C10.9254 10.951 10.1053 11.7735 10.1053 12.784C10.1053 13.7945 10.9254 14.617 11.9383 14.617H18.9624C19.9753 14.617 20.7978 13.7945 20.7978 12.7581C20.7978 11.75 19.9753 10.9275 18.9624 10.9275H11.9383ZM30.3623 25.239H11.9383C10.9254 25.239 10.1053 24.4165 10.1053 23.406C10.1053 22.3955 10.9254 21.5706 11.9383 21.5706H30.3623C31.3728 21.5706 32.1953 22.3955 32.1953 23.406C32.1953 24.4165 31.3728 25.239 30.3623 25.239ZM30.3621 35.9785H11.9381C11.2331 36.0725 10.5516 35.72 10.1756 35.1325C9.79955 34.5215 9.79955 33.746 10.1756 33.1585C10.5516 32.5475 11.2331 32.2185 11.9381 32.289H30.3621C31.2997 32.383 32.0071 33.182 32.0071 34.1455C32.0071 35.0831 31.2997 35.8845 30.3621 35.9785Z" fill="white"/>
<path d="M56.66 35V10.5H59.46L60.685 15.12V35H56.66ZM73.635 35L58.97 15.855L59.46 10.5L74.125 29.645L73.635 35ZM73.635 35L72.41 30.695V10.5H76.435V35H73.635ZM89.0279 35.35C87.3479 35.35 85.8312 34.9767 84.4779 34.23C83.1479 33.46 82.0862 32.41 81.2929 31.08C80.5229 29.75 80.1379 28.2567 80.1379 26.6C80.1379 24.9433 80.5229 23.4617 81.2929 22.155C82.0629 20.825 83.1012 19.775 84.4079 19.005C85.7379 18.235 87.2079 17.85 88.8179 17.85C90.3812 17.85 91.7579 18.2117 92.9479 18.935C94.1612 19.6583 95.1062 20.65 95.7829 21.91C96.4829 23.17 96.8329 24.605 96.8329 26.215C96.8329 26.495 96.8096 26.7867 96.7629 27.09C96.7396 27.37 96.6929 27.685 96.6229 28.035H82.8329V24.885H94.6279L93.1929 26.145C93.1462 25.1183 92.9479 24.255 92.5979 23.555C92.2479 22.855 91.7462 22.3183 91.0929 21.945C90.4629 21.5717 89.6812 21.385 88.7479 21.385C87.7679 21.385 86.9162 21.595 86.1929 22.015C85.4696 22.435 84.9096 23.03 84.5129 23.8C84.1162 24.5467 83.9179 25.445 83.9179 26.495C83.9179 27.545 84.1279 28.4667 84.5479 29.26C84.9679 30.0533 85.5629 30.6717 86.3329 31.115C87.1029 31.535 87.9896 31.745 88.9929 31.745C89.8562 31.745 90.6496 31.5933 91.3729 31.29C92.1196 30.9867 92.7496 30.5433 93.2629 29.96L95.7129 32.445C94.8962 33.4017 93.9046 34.125 92.7379 34.615C91.5712 35.105 90.3346 35.35 89.0279 35.35ZM107.724 35.35C106.044 35.35 104.528 34.9767 103.174 34.23C101.844 33.46 100.783 32.41 99.9892 31.08C99.2192 29.75 98.8342 28.2567 98.8342 26.6C98.8342 24.9433 99.2192 23.4617 99.9892 22.155C100.759 20.825 101.798 19.775 103.104 19.005C104.434 18.235 105.904 17.85 107.514 17.85C109.078 17.85 110.454 18.2117 111.644 18.935C112.858 19.6583 113.803 20.65 114.479 21.91C115.179 23.17 115.529 24.605 115.529 26.215C115.529 26.495 115.506 26.7867 115.459 27.09C115.436 27.37 115.389 27.685 115.319 28.035H101.529V24.885H113.324L111.889 26.145C111.843 25.1183 111.644 24.255 111.294 23.555C110.944 22.855 110.443 22.3183 109.789 21.945C109.159 21.5717 108.378 21.385 107.444 21.385C106.464 21.385 105.613 21.595 104.889 22.015C104.166 22.435 103.606 23.03 103.209 23.8C102.813 24.5467 102.614 25.445 102.614 26.495C102.614 27.545 102.824 28.4667 103.244 29.26C103.664 30.0533 104.259 30.6717 105.029 31.115C105.799 31.535 106.686 31.745 107.689 31.745C108.553 31.745 109.346 31.5933 110.069 31.29C110.816 30.9867 111.446 30.5433 111.959 29.96L114.409 32.445C113.593 33.4017 112.601 34.125 111.434 34.615C110.268 35.105 109.031 35.35 107.724 35.35ZM123.31 35L116.555 18.2H120.545L125.095 30.415L123.905 30.45L128.35 18.2H130.59L135.035 30.45L133.845 30.415L138.395 18.2H142.385L135.63 35H133.39L128.84 23.38H130.1L125.55 35H123.31ZM149.882 35.35C148.949 35.35 148.05 35.2333 147.187 35C146.324 34.7433 145.53 34.3933 144.807 33.95C144.084 33.4833 143.454 32.9233 142.917 32.27L145.367 29.82C145.95 30.4967 146.615 31.01 147.362 31.36C148.132 31.6867 148.995 31.85 149.952 31.85C150.815 31.85 151.469 31.7217 151.912 31.465C152.355 31.2083 152.577 30.835 152.577 30.345C152.577 29.8317 152.367 29.435 151.947 29.155C151.527 28.875 150.979 28.6417 150.302 28.455C149.649 28.245 148.949 28.035 148.202 27.825C147.479 27.615 146.779 27.335 146.102 26.985C145.449 26.6117 144.912 26.11 144.492 25.48C144.072 24.85 143.862 24.0333 143.862 23.03C143.862 21.9567 144.107 21.035 144.597 20.265C145.11 19.495 145.822 18.9 146.732 18.48C147.665 18.06 148.774 17.85 150.057 17.85C151.41 17.85 152.6 18.095 153.627 18.585C154.677 19.0517 155.552 19.7633 156.252 20.72L153.802 23.17C153.312 22.5633 152.752 22.1083 152.122 21.805C151.492 21.5017 150.769 21.35 149.952 21.35C149.182 21.35 148.587 21.4667 148.167 21.7C147.747 21.9333 147.537 22.2717 147.537 22.715C147.537 23.1817 147.747 23.5433 148.167 23.8C148.587 24.0567 149.124 24.2783 149.777 24.465C150.454 24.6517 151.154 24.8617 151.877 25.095C152.624 25.305 153.324 25.6083 153.977 26.005C154.654 26.3783 155.202 26.8917 155.622 27.545C156.042 28.175 156.252 29.0033 156.252 30.03C156.252 31.6633 155.68 32.9583 154.537 33.915C153.394 34.8717 151.842 35.35 149.882 35.35Z" fill="white"/>
</svg>
