<svg width="136" height="213" viewBox="0 0 136 213" fill="none" xmlns="http://www.w3.org/2000/svg">
<path opacity="0.4" d="M97.9664 0H37.6288C15.7428 0 3 12.8148 3 34.7728V109.142C3 131.46 15.7428 143.987 37.6288 143.987H97.9664C120.205 143.987 132.588 131.46 132.588 109.142V34.7728C132.588 12.8148 120.205 0 97.9664 0Z" fill="white"/>
<path fill-rule="evenodd" clip-rule="evenodd" d="M39.5729 33.4768V33.5488C36.47 33.5488 33.9575 36.0686 33.9575 39.1643C33.9575 42.26 36.47 44.7798 39.5729 44.7798H61.0917C64.1947 44.7798 66.7144 42.26 66.7144 39.0851C66.7144 35.9966 64.1947 33.4768 61.0917 33.4768H39.5729ZM96.0157 77.3207H39.5729C36.47 77.3207 33.9575 74.8009 33.9575 71.7052C33.9575 68.6095 36.47 66.0825 39.5729 66.0825H96.0157C99.1114 66.0825 101.631 68.6095 101.631 71.7052C101.631 74.8009 99.1114 77.3207 96.0157 77.3207ZM96.0155 110.222H39.5727C37.4129 110.51 35.3251 109.43 34.1732 107.63C33.0214 105.758 33.0214 103.382 34.1732 101.583C35.3251 99.7107 37.4129 98.7028 39.5727 98.9188H96.0155C98.8881 99.2067 101.055 101.655 101.055 104.606C101.055 107.479 98.8881 109.934 96.0155 110.222Z" fill="white"/>
<path d="M3.496 201V168.8H7.176L8.786 174.872V201H3.496ZM25.806 201L6.532 175.838L7.176 168.8L26.45 193.962L25.806 201ZM25.806 201L24.196 195.342V168.8H29.486V201H25.806ZM46.0367 201.46C43.8287 201.46 41.8353 200.969 40.0567 199.988C38.3087 198.976 36.9133 197.596 35.8707 195.848C34.8587 194.1 34.3527 192.137 34.3527 189.96C34.3527 187.783 34.8587 185.835 35.8707 184.118C36.8827 182.37 38.2473 180.99 39.9647 179.978C41.7127 178.966 43.6447 178.46 45.7607 178.46C47.8153 178.46 49.6247 178.935 51.1887 179.886C52.7833 180.837 54.0253 182.14 54.9147 183.796C55.8347 185.452 56.2947 187.338 56.2947 189.454C56.2947 189.822 56.264 190.205 56.2027 190.604C56.172 190.972 56.1107 191.386 56.0187 191.846H37.8947V187.706H53.3967L51.5107 189.362C51.4493 188.013 51.1887 186.878 50.7287 185.958C50.2687 185.038 49.6093 184.333 48.7507 183.842C47.9227 183.351 46.8953 183.106 45.6687 183.106C44.3807 183.106 43.2613 183.382 42.3107 183.934C41.36 184.486 40.624 185.268 40.1027 186.28C39.5813 187.261 39.3207 188.442 39.3207 189.822C39.3207 191.202 39.5967 192.413 40.1487 193.456C40.7007 194.499 41.4827 195.311 42.4947 195.894C43.5067 196.446 44.672 196.722 45.9907 196.722C47.1253 196.722 48.168 196.523 49.1187 196.124C50.1 195.725 50.928 195.143 51.6027 194.376L54.8227 197.642C53.7493 198.899 52.446 199.85 50.9127 200.494C49.3793 201.138 47.754 201.46 46.0367 201.46ZM70.6089 201.46C68.4009 201.46 66.4076 200.969 64.6289 199.988C62.8809 198.976 61.4856 197.596 60.4429 195.848C59.4309 194.1 58.9249 192.137 58.9249 189.96C58.9249 187.783 59.4309 185.835 60.4429 184.118C61.4549 182.37 62.8196 180.99 64.5369 179.978C66.2849 178.966 68.2169 178.46 70.3329 178.46C72.3876 178.46 74.1969 178.935 75.7609 179.886C77.3556 180.837 78.5976 182.14 79.4869 183.796C80.4069 185.452 80.8669 187.338 80.8669 189.454C80.8669 189.822 80.8363 190.205 80.7749 190.604C80.7443 190.972 80.6829 191.386 80.5909 191.846H62.4669V187.706H77.9689L76.0829 189.362C76.0216 188.013 75.7609 186.878 75.3009 185.958C74.8409 185.038 74.1816 184.333 73.3229 183.842C72.4949 183.351 71.4676 183.106 70.2409 183.106C68.9529 183.106 67.8336 183.382 66.8829 183.934C65.9323 184.486 65.1963 185.268 64.6749 186.28C64.1536 187.261 63.8929 188.442 63.8929 189.822C63.8929 191.202 64.1689 192.413 64.7209 193.456C65.2729 194.499 66.0549 195.311 67.0669 195.894C68.0789 196.446 69.2443 196.722 70.5629 196.722C71.6976 196.722 72.7403 196.523 73.6909 196.124C74.6723 195.725 75.5003 195.143 76.1749 194.376L79.3949 197.642C78.3216 198.899 77.0183 199.85 75.4849 200.494C73.9516 201.138 72.3263 201.46 70.6089 201.46ZM91.0937 201L82.2157 178.92H87.4597L93.4397 194.974L91.8757 195.02L97.7177 178.92H100.662L106.504 195.02L104.94 194.974L110.92 178.92H116.164L107.286 201H104.342L98.3617 185.728H100.018L94.0377 201H91.0937ZM126.016 201.46C124.79 201.46 123.609 201.307 122.474 201C121.34 200.663 120.297 200.203 119.346 199.62C118.396 199.007 117.568 198.271 116.862 197.412L120.082 194.192C120.849 195.081 121.723 195.756 122.704 196.216C123.716 196.645 124.851 196.86 126.108 196.86C127.243 196.86 128.102 196.691 128.684 196.354C129.267 196.017 129.558 195.526 129.558 194.882C129.558 194.207 129.282 193.686 128.73 193.318C128.178 192.95 127.458 192.643 126.568 192.398C125.71 192.122 124.79 191.846 123.808 191.57C122.858 191.294 121.938 190.926 121.048 190.466C120.19 189.975 119.484 189.316 118.932 188.488C118.38 187.66 118.104 186.587 118.104 185.268C118.104 183.857 118.426 182.646 119.07 181.634C119.745 180.622 120.68 179.84 121.876 179.288C123.103 178.736 124.56 178.46 126.246 178.46C128.025 178.46 129.589 178.782 130.938 179.426C132.318 180.039 133.468 180.975 134.388 182.232L131.168 185.452C130.524 184.655 129.788 184.057 128.96 183.658C128.132 183.259 127.182 183.06 126.108 183.06C125.096 183.06 124.314 183.213 123.762 183.52C123.21 183.827 122.934 184.271 122.934 184.854C122.934 185.467 123.21 185.943 123.762 186.28C124.314 186.617 125.02 186.909 125.878 187.154C126.768 187.399 127.688 187.675 128.638 187.982C129.62 188.258 130.54 188.657 131.398 189.178C132.288 189.669 133.008 190.343 133.56 191.202C134.112 192.03 134.388 193.119 134.388 194.468C134.388 196.615 133.637 198.317 132.134 199.574C130.632 200.831 128.592 201.46 126.016 201.46Z" fill="white"/>
</svg>
