<svg width="21" height="21" viewBox="0 0 21 21" fill="none" xmlns="http://www.w3.org/2000/svg">
<path d="M9.742 1.03857H6.003C2.928 1.03857 1 3.21557 1 6.29757V14.6116C1 17.6936 2.919 19.8706 6.003 19.8706H14.827C17.912 19.8706 19.831 17.6936 19.831 14.6116V10.5836" stroke="black" stroke-width="1.5" stroke-linecap="round" stroke-linejoin="round"/>
<path fill-rule="evenodd" clip-rule="evenodd" d="M7.07739 9.1705L14.5504 1.6975C15.4814 0.7675 16.9904 0.7675 17.9214 1.6975L19.1384 2.9145C20.0694 3.8455 20.0694 5.3555 19.1384 6.2855L11.6294 13.7945C11.2224 14.2015 10.6704 14.4305 10.0944 14.4305H6.34839L6.44239 10.6505C6.45639 10.0945 6.68339 9.5645 7.07739 9.1705Z" stroke="black" stroke-width="1.5" stroke-linecap="round" stroke-linejoin="round"/>
<path d="M13.4148 2.85211L17.9808 7.41811" stroke="black" stroke-width="1.5" stroke-linecap="round" stroke-linejoin="round"/>
</svg>
