<svg width="21" height="18" viewBox="0 0 21 18" fill="none" xmlns="http://www.w3.org/2000/svg">
<path d="M8.01094 11.1172C7.43594 10.5432 7.08594 9.76323 7.08594 8.88823C7.08594 7.13523 8.49794 5.72223 10.2499 5.72223C11.1169 5.72223 11.9149 6.07323 12.4799 6.64723" stroke="black" stroke-width="1.5" stroke-linecap="round" stroke-linejoin="round"/>
<path d="M13.3551 9.44928C13.1231 10.7393 12.1071 11.7573 10.8181 11.9913" stroke="black" stroke-width="1.5" stroke-linecap="round" stroke-linejoin="round"/>
<path d="M4.905 14.2227C3.318 12.9767 1.974 11.1567 1 8.88772C1.984 6.60872 3.337 4.77872 4.934 3.52272C6.521 2.26672 8.352 1.58472 10.25 1.58472C12.159 1.58472 13.989 2.27672 15.586 3.54172" stroke="black" stroke-width="1.5" stroke-linecap="round" stroke-linejoin="round"/>
<path d="M17.698 5.74121C18.386 6.65521 18.991 7.71021 19.5 8.88721C17.533 13.4442 14.057 16.1892 10.25 16.1892C9.38702 16.1892 8.53602 16.0492 7.71802 15.7762" stroke="black" stroke-width="1.5" stroke-linecap="round" stroke-linejoin="round"/>
<path d="M18.1373 1L2.36328 16.774" stroke="black" stroke-width="1.5" stroke-linecap="round" stroke-linejoin="round"/>
</svg>
