<svg width="21" height="22" viewBox="0 0 21 22" fill="none" xmlns="http://www.w3.org/2000/svg">
<mask id="mask0_42475_4684" style="mask-type:luminance" maskUnits="userSpaceOnUse" x="0" y="0" width="21" height="22">
<path fill-rule="evenodd" clip-rule="evenodd" d="M0 0H20.4998V21.505H0V0Z" fill="white"/>
</mask>
<g mask="url(#mask0_42475_4684)">
<path fill-rule="evenodd" clip-rule="evenodd" d="M11.7168 14.2911C12.9208 14.2911 13.9008 15.2641 13.9008 16.4601V19.5361C13.9008 19.7931 14.1068 19.9991 14.3708 20.0051H16.2768C17.7788 20.0051 18.9998 18.7991 18.9998 17.3171V8.59313C18.9928 8.08313 18.7498 7.60313 18.3328 7.28413L11.7398 2.02613C10.8548 1.32513 9.61676 1.32513 8.72876 2.02813L2.18076 7.28213C1.74776 7.61113 1.50476 8.09113 1.49976 8.61013V17.3171C1.49976 18.7991 2.72076 20.0051 4.22276 20.0051H6.14676C6.41776 20.0051 6.63776 19.7901 6.63776 19.5261C6.63776 19.4681 6.64476 19.4101 6.65676 19.3551V16.4601C6.65676 15.2711 7.63076 14.2991 8.82576 14.2911H11.7168ZM16.2768 21.5051H14.3528C13.2508 21.4791 12.4008 20.6141 12.4008 19.5361V16.4601C12.4008 16.0911 12.0938 15.7911 11.7168 15.7911H8.83076C8.46176 15.7931 8.15676 16.0941 8.15676 16.4601V19.5261C8.15676 19.6011 8.14676 19.6731 8.12576 19.7411C8.01776 20.7311 7.17176 21.5051 6.14676 21.5051H4.22276C1.89376 21.5051 -0.000244141 19.6261 -0.000244141 17.3171V8.60313C0.00975586 7.60913 0.467756 6.69913 1.25876 6.10013L7.79376 0.855128C9.23276 -0.284872 11.2378 -0.284872 12.6738 0.853128L19.2558 6.10313C20.0288 6.69213 20.4868 7.60013 20.4998 8.58213V17.3171C20.4998 19.6261 18.6058 21.5051 16.2768 21.5051V21.5051Z" fill="black"/>
</g>
</svg>
