<svg width="24" height="24" viewBox="0 0 24 24" fill="none" xmlns="http://www.w3.org/2000/svg">
<path d="M12.025 22L11 19H4C3.41667 19 2.9375 18.8125 2.5625 18.4375C2.1875 18.0625 2 17.5833 2 17V4C2 3.41667 2.1875 2.9375 2.5625 2.5625C2.9375 2.1875 3.41667 2 4 2H10L10.875 4.975H20C20.5833 4.975 21.0625 5.1625 21.4375 5.5375C21.8125 5.9125 22 6.39167 22 6.975V20C22 20.5833 21.8125 21.0625 21.4375 21.4375C21.0625 21.8125 20.5833 22 20 22H12.025ZM7.175 14.6C8.325 14.6 9.26667 14.225 10 13.475C10.7333 12.725 11.1 11.7583 11.1 10.575V10.1875C11.1 10.0792 11.0833 9.98333 11.05 9.9H7.075V11.425H9.325C9.19167 11.9083 8.9375 12.2833 8.5625 12.55C8.1875 12.8167 7.73333 12.95 7.2 12.95C6.55 12.95 5.99167 12.7125 5.525 12.2375C5.05833 11.7625 4.825 11.1833 4.825 10.5C4.825 9.81667 5.05833 9.2375 5.525 8.7625C5.99167 8.2875 6.55 8.05 7.2 8.05C7.5 8.05 7.77917 8.10417 8.0375 8.2125C8.29583 8.32083 8.53333 8.48333 8.75 8.7L9.975 7.55C9.64167 7.18333 9.225 6.9 8.725 6.7C8.225 6.5 7.70833 6.4 7.175 6.4C6.04167 6.4 5.07917 6.8 4.2875 7.6C3.49583 8.4 3.1 9.36667 3.1 10.5C3.1 11.6333 3.49583 12.6 4.2875 13.4C5.07917 14.2 6.04167 14.6 7.175 14.6ZM13.85 15.075L14.425 14.55C14.1917 14.2667 13.975 13.9958 13.775 13.7375C13.575 13.4792 13.3833 13.2 13.2 12.9L13.85 15.075ZM15.1 13.8C15.5833 13.25 15.9458 12.725 16.1875 12.225C16.4292 11.725 16.5917 11.3333 16.675 11.05H12.7L12.975 12.125H13.975C14.1083 12.375 14.2667 12.6417 14.45 12.925C14.6333 13.2083 14.85 13.5 15.1 13.8ZM13.025 21H20C20.2833 21 20.5208 20.9042 20.7125 20.7125C20.9042 20.5208 21 20.2833 21 20V6.975C21 6.69167 20.9042 6.45417 20.7125 6.2625C20.5208 6.07083 20.2833 5.975 20 5.975H11.2L12.35 10.05H14.325V8.975H15.35V10.05H19.025V11.05H17.725C17.575 11.6833 17.3333 12.3 17 12.9C16.6667 13.5 16.275 14.0583 15.825 14.575L18.55 17.275L17.825 18L15.1 15.3L14.2 16.2L15.025 19L13.025 21Z" fill="black"/>
</svg>
