<svg width="21" height="21" viewBox="0 0 21 21" fill="none" xmlns="http://www.w3.org/2000/svg">
<path fill-rule="evenodd" clip-rule="evenodd" d="M14.584 1H5.915C2.894 1 1 3.139 1 6.166V14.334C1 17.361 2.885 19.5 5.915 19.5H14.583C17.614 19.5 19.5 17.361 19.5 14.334V6.166C19.5 3.139 17.614 1 14.584 1Z" stroke="black" stroke-width="1.5" stroke-linecap="round" stroke-linejoin="round"/>
<path fill-rule="evenodd" clip-rule="evenodd" d="M8.93935 10.25C8.93935 11.273 8.11035 12.102 7.08735 12.102C6.06435 12.102 5.23535 11.273 5.23535 10.25C5.23535 9.227 6.06435 8.398 7.08735 8.398H7.09035C8.11135 8.399 8.93935 9.228 8.93935 10.25Z" stroke="black" stroke-width="1.5" stroke-linecap="round" stroke-linejoin="round"/>
<path d="M8.94238 10.25H15.2604V12.102" stroke="black" stroke-width="1.5" stroke-linecap="round" stroke-linejoin="round"/>
<path d="M12.4316 12.1021V10.2501" stroke="black" stroke-width="1.5" stroke-linecap="round" stroke-linejoin="round"/>
</svg>
