<svg width="20" height="20" viewBox="0 0 20 20" fill="none" xmlns="http://www.w3.org/2000/svg">
<mask id="mask0_42595_4668" style="mask-type:luminance" maskUnits="userSpaceOnUse" x="0" y="0" width="20" height="20">
<path fill-rule="evenodd" clip-rule="evenodd" d="M0 0H19.499V19.499H0V0Z" fill="white"/>
</mask>
<g mask="url(#mask0_42595_4668)">
<path fill-rule="evenodd" clip-rule="evenodd" d="M8.80495 11.8174L12.4619 17.7504C12.6219 18.0104 12.8719 18.0074 12.9729 17.9934C13.0739 17.9794 13.3169 17.9174 13.4049 17.6224L17.9779 2.17741C18.0579 1.90441 17.9109 1.71841 17.8449 1.65241C17.7809 1.58641 17.5979 1.44541 17.3329 1.52041L1.87694 6.04641C1.58394 6.13241 1.51994 6.37841 1.50594 6.47941C1.49194 6.58241 1.48794 6.83741 1.74694 7.00041L7.74794 10.7534L13.0499 5.39541C13.3409 5.10141 13.8159 5.09841 14.1109 5.38941C14.4059 5.68041 14.4079 6.15641 14.1169 6.45041L8.80495 11.8174ZM12.8949 19.4994C12.1989 19.4994 11.5609 19.1454 11.1849 18.5374L7.30794 12.2464L0.951945 8.27141C0.266945 7.84241 -0.091055 7.07841 0.019945 6.27541C0.129945 5.47241 0.680945 4.83441 1.45494 4.60741L16.9109 0.0814054C17.6219 -0.126595 18.3839 0.0704054 18.9079 0.592405C19.4319 1.11941 19.6269 1.88941 19.4149 2.60341L14.8419 18.0474C14.6129 18.8244 13.9729 19.3734 13.1719 19.4804C13.0779 19.4924 12.9869 19.4994 12.8949 19.4994V19.4994Z" fill="black"/>
</g>
</svg>
