<svg width="34" height="30" viewBox="0 0 34 30" fill="none" xmlns="http://www.w3.org/2000/svg">
<path d="M31.6667 15.3667C31.6667 6.21667 24.5667 0 16.6667 0C8.85 0 1.66667 6.08333 1.66667 15.4667C0.666667 16.0333 0 17.1 0 18.3333V21.6667C0 23.5 1.5 25 3.33333 25H5V14.8333C5 8.38333 10.2167 3.16667 16.6667 3.16667C23.1167 3.16667 28.3333 8.38333 28.3333 14.8333V26.6667H15V30H28.3333C30.1667 30 31.6667 28.5 31.6667 26.6667V24.6333C32.65 24.1167 33.3333 23.1 33.3333 21.9V18.0667C33.3333 16.9 32.65 15.8833 31.6667 15.3667Z" fill="black"/>
<path d="M11.6667 18.3333C12.5871 18.3333 13.3333 17.5871 13.3333 16.6667C13.3333 15.7462 12.5871 15 11.6667 15C10.7462 15 10 15.7462 10 16.6667C10 17.5871 10.7462 18.3333 11.6667 18.3333Z" fill="black"/>
<path d="M21.6667 18.3333C22.5871 18.3333 23.3333 17.5871 23.3333 16.6667C23.3333 15.7462 22.5871 15 21.6667 15C20.7462 15 20 15.7462 20 16.6667C20 17.5871 20.7462 18.3333 21.6667 18.3333Z" fill="black"/>
<path d="M26.6668 13.3833C25.8668 8.63333 21.7334 5 16.7501 5C11.7001 5 6.26678 9.18333 6.70011 15.75C10.8168 14.0667 13.9168 10.4 14.8001 5.93333C16.9834 10.3167 21.4668 13.3333 26.6668 13.3833Z" fill="black"/>
</svg>
